<?xml version="1.0" encoding="UTF-8"?>
<svg id="Layer_1" data-name="Layer 1" xmlns="http://www.w3.org/2000/svg" viewBox="0 0 113.66 12.38">
  <defs>
    <style>
      .cls-1 {
        fill: #235091;
      }

      .cls-2 {
        fill: #dba41b;
      }

      .cls-3 {
        fill: #af1c1c;
      }
    </style>
  </defs>
  <g>
    <path class="cls-2" d="M76.02,4.82v.21h-4.72c-.1-.32-.47-1.82-3.93-1.82-3.28,0-3.98,1.45-3.98,2.78v.18h-4.71v-.26c0-2.27.99-5.91,8.42-5.91h.63c7.23,0,8.29,3.29,8.29,4.82Z"/>
    <path class="cls-2" d="M92.71,6.06v-.1c0-1.41.9-2.67,5.65-2.67h.85c4.63,0,5.65,1.31,5.65,2.67v.11h-4.35c-.05-.3-.18-.8-1.73-.8h-.02c-1.4,0-1.68.21-1.68.59v.02c0,.07.01.13.04.18.01.04.04.08.07.11"/>
    <path class="cls-2" d="M86.3,6.17c-.06-.04-.13-.08-.2-.11-.4-.21-.95-.34-1.69-.34h-.01c-.75,0-1.3.13-1.7.34-.07.03-.13.06-.19.11h-4.97s.02-.08.04-.11c.59-1.44,2.21-2.77,6.21-2.77h1.22c4.14,0,5.69,1.34,6.22,2.77"/>
    <polygon class="cls-2" points="113.66 3.53 113.66 6.17 106.04 6.17 106.04 3.53 107.69 3.53 107.69 1.01 112.01 1.01 112.01 3.53 113.66 3.53"/>
    <path class="cls-1" d="M71.31,7.19h4.71v.26c0,.47-.1,1.11-.45,1.77h-16.17c-.57-.97-.72-2.01-.72-2.85v-.31h4.71v.12c0,1.28.8,2.96,4,2.96,3.51,0,3.86-1.68,3.92-1.95Z"/>
    <path class="cls-1" d="M77.58,6.06h5.12c-.07.03-.13.06-.19.11-.62.39-.82,1-.82,1.57v.06c0,.47.14,1,.55,1.42h-4.76c-.15-.45-.2-.9-.2-1.31v-.25c0-.47.07-.98.26-1.49.01-.04.02-.08.04-.11Z"/>
    <rect class="cls-1" x="92.62" y="9.21" width="4.43" height=".01"/>
    <path class="cls-1" d="M97.12,6.06s.04.08.07.11c.17.18.59.32,1.49.35l1.81.05c3.83.12,4.66.99,4.69,2.65h-4.61c-.14-.24-.54-.37-1.58-.41l-1.83-.05c-3.53-.13-4.4-1.35-4.45-2.59v-.11h4.41Z"/>
    <path class="cls-1" d="M91.27,6.17c.18.5.23,1.01.23,1.47v.29c0,.41-.03.85-.15,1.29h-4.82c.43-.42.57-.96.57-1.42v-.06c0-.56-.2-1.17-.8-1.57-.06-.04-.13-.08-.2-.11h5.13"/>
    <path class="cls-1" d="M112.01,6.17v2.54c0,.23.02.39.09.51h-4.41v-3.05h-1.65,7.62-1.65Z"/>
    <path class="cls-3" d="M59.4,9.22h16.17c-.79,1.51-2.85,3.14-7.84,3.14h-.63c-4.61,0-6.75-1.48-7.7-3.14Z"/>
    <path class="cls-3" d="M86.53,9.22h4.82c-.41,1.57-1.85,3.16-6.36,3.16h-1.18c-4.29,0-5.86-1.58-6.33-3.16h4.76c.4.41,1.08.71,2.16.71h.01c1.05,0,1.72-.3,2.12-.71Z"/>
    <path class="cls-3" d="M100.57,9.22h4.61v.2c0,1.58-.88,2.96-5.93,2.96h-.89c-5.18,0-5.74-1.94-5.74-3.06v-.1h4.43c0,.32.17,1.04,1.78,1.04h.03c1.54,0,1.78-.35,1.78-.72v-.03c0-.11-.02-.21-.07-.29Z"/>
    <path class="cls-3" d="M113.66,9.46v2.68h-3.68c-1.49,0-2.29-.8-2.29-2.45v-.47h4.41c.09.17.27.24.63.24h.93Z"/>
  </g>
  <path d="M13.17.23v2.91H4.48v1.49h8.52v2.9H4.48v1.63h8.82v2.98H0V.23h13.17Z"/>
  <path d="M21.12,12.38c-5.52,0-6.34-2.66-6.34-4.45v-.29c0-1.78.8-4.35,6.32-4.35h.99c5.75,0,6.34,2.66,6.34,3.84v.05h-4.45c-.05-.32-.34-1.49-2.38-1.49h-.06c-1.86,0-2.34,1.02-2.34,2v.08c0,1.04.51,2.18,2.34,2.18h.06c2.03,0,2.34-1.22,2.38-1.55h4.45v.03c0,1.17-.46,3.95-6.35,3.95h-.96Z"/>
  <path d="M42.87,12.14h-4.32v-1.54c-.42.42-1.73,1.73-4.37,1.73h-.11c-3.2,0-4.13-1.97-4.13-3.36V3.53h4.37v4.11c0,1.1.53,1.99,1.98,1.99s2.24-.93,2.24-2.1V3.53h4.34v8.61Z"/>
  <path d="M48.53,12.3h-.18c-2.88,0-3.99-1.36-3.99-2.77v-.19c0-1.44.93-2.29,3.49-2.5l4.15-.37c.37-.05.48-.18.48-.42,0-.32-.18-.66-1.87-.66h-.06c-1.84,0-1.89.61-1.94.88h-4.03v-.1c0-1.15.35-2.88,5.52-2.88h.9c5.38,0,5.75,1.6,5.75,2.77v3.19c0,.24.06.37.37.37h.46v2.51h-3.62c-.75,0-1.26-.4-1.39-1.15-.42.42-1.52,1.31-4.03,1.31ZM52.48,8.07l-2.88.51c-.75.13-1.06.3-1.06.74v.02c0,.4.29.88,1.36.88,1.6,0,2.58-.88,2.58-1.78v-.37Z"/>
</svg>